<?xml version="1.0" standalone="no"?>
<!DOCTYPE svg PUBLIC "-//W3C//DTD SVG 20010904//EN"
 "http://www.w3.org/TR/2001/REC-SVG-20010904/DTD/svg10.dtd">
<svg version="1.0" xmlns="http://www.w3.org/2000/svg"
 width="200.000000pt" height="200.000000pt" viewBox="0 0 200.000000 200.000000"
 preserveAspectRatio="xMidYMid meet">

<g transform="translate(0.000000,200.000000) scale(0.100000,-0.100000)"
fill="#000000" stroke="none">
<path d="M1042 1918 c-7 -7 -12 -38 -12 -70 l0 -58 -238 0 -238 0 -41 -42
c-22 -24 -116 -128 -207 -232 l-167 -189 23 -24 c12 -13 25 -22 29 -21 4 2 89
95 189 208 99 113 184 205 188 205 4 0 94 -90 199 -200 l192 -200 1 -307 0
-308 -110 0 -110 0 0 199 c0 110 -4 211 -10 225 l-10 26 -134 0 c-102 0 -136
-3 -145 -14 -8 -9 -11 -55 -9 -137 l3 -124 33 -3 32 -3 0 105 0 106 80 0 80 0
0 -189 c0 -159 -2 -190 -15 -195 -9 -3 -15 -18 -15 -36 l0 -30 370 0 370 0 0
35 0 35 -165 0 -165 0 0 295 0 295 415 0 c398 0 415 1 415 19 0 27 -33 65
-255 295 l-198 206 -74 0 -73 0 0 58 c0 32 -5 63 -12 70 -8 8 -47 12 -108 12
-61 0 -100 -4 -108 -12z m156 -160 l3 -98 -51 0 -50 0 0 101 0 100 48 -3 47
-3 3 -97z m-168 -96 c0 -32 5 -63 12 -70 16 -16 200 -16 216 0 7 7 12 38 12
70 l0 58 58 0 57 0 160 -167 c88 -91 168 -177 178 -190 l18 -23 -362 0 -362 0
-171 176 c-94 97 -175 183 -179 190 -7 12 23 14 178 14 l185 0 0 -58z"/>
<path d="M73 1225 c-18 -8 -42 -29 -53 -47 -20 -31 -20 -46 -18 -293 3 -301
-15 -232 162 -598 l105 -218 31 16 c16 8 30 17 30 19 0 1 -53 115 -118 252
-66 137 -124 264 -130 283 -15 44 -16 474 -2 502 12 21 50 25 68 7 9 -9 12
-72 12 -217 1 -138 5 -215 13 -233 15 -33 197 -255 216 -263 18 -7 41 13 41
35 0 10 -38 65 -85 123 -84 103 -97 131 -73 155 30 30 55 13 180 -131 170
-194 171 -196 176 -379 l4 -148 35 0 35 0 -4 152 c-6 185 -17 221 -96 312 -31
37 -93 109 -137 160 -97 114 -128 135 -184 120 l-39 -11 -4 161 c-3 180 -13
212 -74 241 -39 18 -50 18 -91 0z"/>
<path d="M1832 1223 c-58 -28 -66 -58 -70 -239 l-4 -161 -39 11 c-56 15 -73 3
-200 -139 -201 -223 -219 -262 -219 -477 l0 -139 33 3 32 3 5 145 c5 137 7
148 35 202 43 82 260 328 290 328 30 0 49 -24 41 -52 -3 -13 -42 -67 -86 -121
-86 -106 -101 -147 -55 -147 24 0 90 69 195 205 l40 52 6 219 c4 120 11 225
17 232 15 19 55 14 67 -7 14 -27 13 -444 -1 -496 -6 -22 -64 -152 -130 -289
-65 -137 -119 -250 -119 -252 0 -2 13 -10 30 -19 l30 -15 43 87 c25 49 84 174
133 278 l89 190 3 260 c2 247 2 262 -18 293 -19 31 -71 62 -102 62 -7 0 -28
-8 -46 -17z"/>
<path d="M1142 1118 c-8 -8 -12 -47 -12 -109 0 -126 2 -129 120 -129 118 0
120 3 120 129 0 62 -4 101 -12 109 -16 16 -200 16 -216 0z m156 -110 l3 -48
-50 0 -51 0 0 43 c0 24 3 47 7 51 4 4 25 6 48 4 l40 -3 3 -47z"/>
<path d="M1471 1111 c-6 -11 -11 -58 -11 -105 0 -116 9 -126 123 -126 118 0
118 1 115 135 l-3 110 -107 3 c-98 2 -108 1 -117 -17z m159 -101 l0 -50 -45 0
-45 0 0 50 0 50 45 0 45 0 0 -50z"/>
</g>
</svg>
